<svg xmlns="http://www.w3.org/2000/svg" viewBox="0 0 630 430" class="svg-logo" width="630" height="430" style="height: auto;"><rect rx="0" ry="0" width="100%" height="100%" fill="rgba(253, 246, 255, 1.0)"></rect><g data-element="wrapper" transform="translate(-16.772641754153767 -8.725000000002296) scale(0.9500000000000097)"><g><g data-element="icon" transform="scale(0.16565287378398455) translate(774.2306118604978 997.8958301812268)"><path id="color_x5F_1" d="M118.855,503.487l-46.288-80.173c-10.929-18.929,2.27-42.675,24.116-43.387l180.906-5.895    c14.953,0,28.465,8.996,34.21,22.853c5.588,13.478,19.611,21.521,34.201,21.521l141.34,0c6.31,0,11.425-5.115,11.425-11.425v-1.11    c0-6.31-5.115-11.425-11.425-11.425H373.234c-6.238,0-11.294-5.057-11.294-11.294c0-6.238,5.057-11.294,11.294-11.294h114.104    c6.31,0,11.425-5.115,11.425-11.425c0-6.31-5.115-11.425-11.425-11.425H373.234c-6.238,0-11.294-5.057-11.294-11.294    c0-6.238,5.057-11.294,11.294-11.294h114.104c6.31,0,11.425-5.115,11.425-11.425v-1.11c0-6.31-5.115-11.425-11.425-11.425    l-141.223,0c-14.869,0-29.232,8.288-34.605,22.153c-5.387,13.9-19.642,22.222-34.483,22.222L85.481,340.58    c-46.729-1.526-76.955-52.104-53.952-92.808c0.16-0.283,0.321-0.565,0.484-0.847l86.841-150.414    c18.961-32.842,54.003-53.073,91.926-53.073h173.683c37.924,0,72.967,20.232,91.928,53.075l38.883,67.348    c10.896,18.873-2.193,42.562-23.97,43.382l-140.049,5.273c-11.73,0.442-23.011-5.765-28.019-16.382    c-12.417-26.324-41.177-44.672-80.769-44.672c-53.758,0-116.754,33.802-116.754,75.499s62.996,75.498,116.754,75.498    c39.592,0,68.353-18.349,80.769-44.673c5.007-10.616,16.289-16.823,28.018-16.381l163.876,6.17    c38.807,1.461,68.11,37.395,59.794,75.329c-2.29,10.448-6.186,20.628-11.695,30.169l-86.841,150.413    c-18.961,32.842-54.004,53.074-91.927,53.074H210.781C172.858,556.561,137.816,536.33,118.855,503.487z" fill="rgba(39, 47, 50, 1.0)"></path></g><text transform="translate(238.171875 234)" fill="rgba(39, 47, 50, 1.0)" font-family="Shrikhand" font-size="64" data-element="company-name" dx="0 0 0 0 0 0 0">QR Eats</text><text transform="translate(169.703125 295)" fill="rgba(39, 47, 50, 1.0)" font-family="JP Kaisei Tokumin" font-size="28.8" data-element="slogan" dx="0 0 0 0 0 0 0 0 0 0 0 0 0 0 0 0 0 0 0 0 0 0 0 0 0 0 0">tu menú al alcance de un QR</text></g></g></svg>